<?xml version="1.0" encoding="utf-8"?>
<!-- Generator: Adobe Illustrator 16.0.0, SVG Export Plug-In . SVG Version: 6.00 Build 0)  -->
<!DOCTYPE svg PUBLIC "-//W3C//DTD SVG 1.1//EN" "http://www.w3.org/Graphics/SVG/1.1/DTD/svg11.dtd">
<svg version="1.1" id="Layer_1" xmlns="http://www.w3.org/2000/svg" xmlns:xlink="http://www.w3.org/1999/xlink" x="0px" y="0px"
	 width="1000px" height="1000px" viewBox="0 0 1000 1000" enable-background="new 0 0 1000 1000" xml:space="preserve">
<g>
	<path fill="none" d="M504.017,251.141c96.798,0,178.659,63.924,205.689,151.859h8.53
		c-27.305-92.743-113.062-160.448-214.648-160.448c-101.584,0-187.341,67.706-214.646,160.448h9.387
		C325.358,315.065,407.219,251.141,504.017,251.141z"/>
	<path fill="none" d="M709.586,530c-27.154,87.729-108.918,151.458-205.569,151.458S325.602,617.729,298.448,530h-9.087h-0.297
		c27.437,92.532,113.09,160.038,214.524,160.038c101.436,0,187.09-67.506,214.526-160.038h-0.297H709.586z"/>
	<path fill="#FFFFFF" d="M503.588,690.038c-101.434,0-187.087-67.506-214.524-160.038h-35.335
		c28.179,111.717,129.322,194.41,249.788,194.41c120.468,0,221.61-82.693,249.789-194.41h-35.191
		C690.678,622.532,605.023,690.038,503.588,690.038z"/>
	<path fill="#FFFFFF" d="M503.588,241.552c101.951,0,187.966,68.191,214.946,161.448h34.626
		c-28.389-111.414-129.39-193.812-249.644-193.812c-120.252,0-221.254,82.398-249.642,193.812h34.77
		C315.625,309.743,401.639,241.552,503.588,241.552z"/>
	<path fill="#A9BCF7" d="M503.588,241.552c-101.949,0-187.963,68.191-214.944,161.448h0.297
		c27.305-92.743,113.062-160.448,214.646-160.448c101.586,0,187.344,67.706,214.648,160.448h0.298
		C691.554,309.743,605.539,241.552,503.588,241.552z"/>
	<path fill="#FFFFFF" d="M504.017,251.141c-96.798,0-178.659,63.924-205.688,151.859h411.377
		C682.676,315.065,600.814,251.141,504.017,251.141z"/>
	<path fill="#FFFFFF" d="M504.017,681.458c96.651,0,178.415-63.729,205.569-151.458H298.448
		C325.602,617.729,407.365,681.458,504.017,681.458z"/>
</g>
<g>
	<polygon fill="#FFFFFF" points="723.447,475 735.236,475 729.297,450.791 	"/>
	<path fill="#FFFFFF" d="M342.122,442.603c-8.1,0-12.599,0-12.599,25.649s4.5,25.649,12.599,25.649s12.689,0,12.689-25.649
		S350.222,442.603,342.122,442.603z"/>
	<path fill="#FFFFFF" d="M841,411H163l40,56l-40,56h678l-40-56L841,411z M277.593,494h0.18c4.14,0,12.509,0,12.509-6h8.1
		c0,14-12.689,14.199-20.789,14.199c-12.6,0-20.699-8.199-20.699-33.848c0-25.649,8.1-33.75,20.699-33.75
		c8.1,0,20.789,0.398,20.789,14.398h-8.1c0-6-8.37-6-12.509-6h-0.18c-8.1,0-12.6,6.151-12.6,25.5S269.494,494,277.593,494z
		 M342.122,502c-12.599,0-20.699,0-20.699-33.749s8.1-33.749,20.699-33.749c12.6,0,20.789,0,20.789,33.749S354.722,502,342.122,502z
		 M406.651,502h-10.62H386v-55.078V435h8.052h1.62h10.979c20.699,0,20.789,33.5,20.789,33.5S427.351,502,406.651,502z M490,443h-15
		v51h15v8h-38v-8h15v-51h-15v-8h38V443z M556,443h-33v21h17v8h-17v30h-8v-67h41V443z M619,443h-15v51h15v8h-38v-8h15v-51h-15v-8h38
		V443z M664.768,494h0.18c4.141,0,12.51,0,12.51-6h8.1c0,14-12.689,14.199-20.789,14.199c-12.6,0-20.699-8.199-20.699-33.848
		c0-25.649,8.1-33.75,20.699-33.75c8.1,0,20.789,0.398,20.789,14.398h-8.1c0-6-8.369-6-12.51-6h-0.18c-8.1,0-12.6,6.151-12.6,25.5
		S656.668,494,664.768,494z M741.717,502l-4.5-18h-15.84l-4.41,18h-8.369l16.379-67h8.641l16.469,67H741.717z"/>
	<path fill="#FFFFFF" d="M406.651,443h-11.16H394v51h2.032h10.62c12.6,0,12.689-25.5,12.689-25.5S419.251,443,406.651,443z"/>
</g>
<g>
	<g>
		<path d="M414.793,304.772c4.574,8.355,6.396,22.938-1.388,29.327c-4.448,3.65-10.731,1.782-14.92-3.447
			c-2.157-2.693-1.407-9.646-1.662-10.429c-0.09-0.277-1.991-1.251-2.719-2.206c-3.185-4.173-2.276-12.276,4.552-16.788
			C407.07,295.67,412.209,300.052,414.793,304.772z M401.853,300.941c-4.086,1.473-4.909,10.504-2.062,14.494
			c1.365,1.913,3.371,3.042,5.826,2.754c0.523-0.062,0.833,0.036,0.974,0.242c0.113,0.166,0.032,0.401-0.405,0.702
			c-1.585,1.092-3.953,1.561-5.344,1.712c0.079,0.29,0.119,0.435,0.198,0.724c0.833,3.173,2.118,6.165,3.752,8.237
			c2.237,2.837,5.973,4.851,7.252,3.853c4.833-3.771-0.428-21.539-4.691-28.8C406.291,303.052,404.065,300.144,401.853,300.941z"/>
		<path d="M429.171,323.127c-0.739,0.869,3.107,11.103,3.859,12.748c0.501,1.096-0.156,1.821-1.006,2.324
			c-0.992,0.587-2.491,0.694-3.147-0.615c-4.759-9.495-7.797-22.388-9.525-33.708c-0.199-1.304,0.756-2.459,1.901-3.061
			c1.326-0.696,2.916-0.713,3.457,0.358c0.09,0.179,0.425,2.027,0.425,2.027c0.026-0.001,1.554-6.762,4.217-7.99
			c3.778-1.742,6.509,0.346,7.915,3.66c2.305,5.432-1.062,19.766-1.062,19.766c0.094,0.083,6.368-7.188,7.196-12.833
			c0.091-0.617,0.337-1.001,0.628-1.117c0.233-0.093,0.482,0.024,0.611,0.35c0.092,0.232,0.12,0.453,0.104,0.766
			c-0.356,6.787-2.726,11.913-10.429,15.843C431.888,322.883,429.23,323.059,429.171,323.127z M428.563,320.383
			c0.587-0.32,1.935,0.032,2.57-0.073c2.246-0.37,2.52-14.087,0.262-18.938c-0.76-1.632-1.688-2.36-2.777-1.841
			c-2.359,1.126-2.826,6.856-1.679,13.492C427.556,315.979,427.881,317.452,428.563,320.383z"/>
		<path d="M458.213,290.342c1.325,4.614-1.079,12.258-7.233,14.449c-0.696,0.248-2.251,0.432-2.305,0.519
			c-0.245,0.397,2.303,5.503,5.794,4.299c5.35-1.845,6.806-7.828,7.76-10.215c0.228-0.571,0.471-0.858,0.771-0.94
			c0.24-0.065,0.474,0.08,0.552,0.37c0.052,0.193,0.058,0.451,0.003,0.724c-1.211,6.128-3.854,11.403-10.189,13.685
			c-4.738,1.706-8.102-1.063-9.902-5.459c-2.823-6.896-1.085-18.083,5.643-20.318c1.41-0.469,3.187-0.379,3.914-0.363
			C455.196,287.138,457.537,287.986,458.213,290.342z M448.805,303.875c3.446-1.267,6.127-10.414,4.97-14.139
			c-0.238-0.764-0.618-1.539-1.573-1.236c-3.628,1.15-5.35,14.442-3.88,15.5C448.376,304.04,448.629,303.939,448.805,303.875z"/>
		<path d="M465.524,309.481c-1.179,0.325-2.675-0.021-3.097-1.461c-0.042-0.144-0.04-0.312-0.07-0.449
			c-1.492-6.882-1.055-12.821-0.13-21.277c0.104-0.945,1.033-1.607,2.069-1.861c1.556-0.38,3.37,0.078,3.69,1.493
			c0.288,1.268-0.41,4.867-0.41,4.867c0.033,0.005,4.116-9.475,7.545-10.1c3.891-0.709,5.306,1.841,5.592,3.669
			c0.872,5.583-3.568,15.13-2.996,18.126c0.122,0.638,0.487,0.976,1.125,0.858c2.554-0.472,5.625-7.615,6.218-8.708
			c0.296-0.547,0.74-0.961,1.046-1.002c0.184-0.024,0.319,0.059,0.352,0.307c0.026,0.198-0.006,0.51-0.124,0.924
			c-0.522,1.829-3.531,10.756-8.484,11.721c-2.277,0.443-4.734-0.441-5.389-3.369c-0.982-4.392,3.089-14.468,2.468-17.76
			c-0.121-0.639-0.547-1.121-1.259-0.982c-2.392,0.464-6.365,9.296-6.404,18.645c-0.036,0.154-0.055,0.231-0.09,0.384
			c0.056,1.431,0.161,2.678,0.236,3.76C467.491,308.359,466.591,309.188,465.524,309.481z"/>
		<path d="M516.5,295.312c-0.097,2.448-2.324,4.37-3.148,5.155c-0.903,0.861-4.345,3.059-8.502,3.178
			c-3.003,0.086-5.818-0.583-10.859-3.954c-0.443-0.297-0.716-0.636-0.759-1.084c-0.105-1.095,1.473-2.405,3.466-2.553
			c4.108-0.305,4.949,4.524,11.713,4.476c3.646-0.026,4.615-1.419,4.639-2.569c0.081-4.049-11.988-7.03-12.374-15.072
			c-0.297-6.193,7.501-15.408,13.825-15.255c1.969,0.047,4.15,1.4,4.355,1.653c0.942,1.162,3.436,3.144,3.339,4.641
			c-0.07,1.098-0.637,2.919-2.413,9.123c-0.479,1.675-1.545,2.417-3.403,2.348c-1.666-0.061-3.13-0.688-3.095-2.487
			c0.063-3.2,4.959-7.646,5.102-10.843c0.033-0.749-0.298-1.899-0.742-2.134c-2.601-1.376-10.739,7.308-10.68,11.558
			C507.044,287.243,516.739,289.267,516.5,295.312z"/>
		<path d="M534.715,299.363c-2.09,0.742-6.142,5.114-9.426,4.804c-4.608-0.436-6.312-4.233-6.059-8.826
			c0.204-3.694,1.642-7.239,3.441-9.854c0.579-0.841,2.854-1.387,3.373-1.637c1.18-0.568,4.485-5.182,8.666-4.632
			c5.309,0.699,6.902,4.486,6.172,8.724c-0.586,3.4-4.998,10.131-4.998,10.131c0.1,0.253,4.559-0.263,6.431-2.098
			c0.433-0.424,0.829-0.71,1.255-0.627c0.183,0.036,0.346,0.169,0.297,0.415c-0.039,0.196-0.166,0.48-0.416,0.836
			C542.304,298.23,536.704,298.657,534.715,299.363z M530.794,298.329c-0.245-0.761-5.442-5.957-5.442-5.957
			c-0.089-0.002-0.954,3.179-1.077,4.624c-0.225,2.64,0.366,4.689,2.294,4.884c0.176,0.018,0.359,0.021,0.529,0.004
			C528.139,301.779,530.919,298.718,530.794,298.329z M528.574,288.966c-0.309,2.934,2.569,7.867,3.156,7.717
			c0.955-0.244,3.418-7.666,3.874-10.884c0.364-2.574,0.04-4.544-1.537-4.748C531.834,280.763,529.028,284.64,528.574,288.966z"/>
		<path d="M545.457,301.653c-0.282,1.32-0.033,2.139,0.835,2.331c3.358,0.743,7.847-8.1,13.419-17.281
			c0.887-1.46,2.645-1.76,4.196-1.302c1.423,0.419,2.554,1.559,2.167,2.8c-0.596,1.91-9.68,13.825-10.608,17.148
			c-0.242,0.867-0.137,1.363,0.376,1.509c2.056,0.584,7.472-4.426,8.462-5.26c0.541-0.455,0.976-0.576,1.271-0.478
			c0.237,0.079,0.365,0.28,0.254,0.612c-0.063,0.189-0.224,0.456-0.503,0.729c-1.376,1.346-7.535,7.969-12.258,6.689
			c-1.687-0.457-2.828-5.067-2.828-5.067c-0.115-0.063-4.399,3.265-6.73,2.78c-3.184-0.663-3.887-2.946-3.315-6.095
			c0.865-4.772,4.793-11.432,7.263-17.037c0.637-1.446,2.487-1.785,3.993-1.449c1.441,0.322,2.661,1.282,2.382,2.45
			c-0.035,0.146-0.101,0.344-0.183,0.471C549.533,291.589,546.136,298.475,545.457,301.653z"/>
		<path d="M563.937,310.911c-0.524,0.983-1.642,1.184-2.586,0.874c-1.055-0.346-1.902-1.345-1.453-2.776
			c1.047-3.34,5.951-12.153,11.296-18.446c0.591-0.695,1.737-0.722,2.812-0.336c1.454,0.522,2.808,1.888,2.312,3.197
			c-0.302,0.795-2.104,2.416-2.104,2.416c0.016,0.016,7.387-4.297,10.454-2.993c2.315,0.984,2.73,2.393,1.854,4.356
			c-1.143,2.557-5.866,5.567-6.553,7.177c-0.274,0.644,0.035,1.209,0.905,1.588c1.914,0.835,5.865-1.374,7.651-2.667
			c0.673-0.487,1.288-0.714,1.644-0.542c0.654,0.316-0.051,1.145-0.314,1.402c-2.128,2.075-7.342,4.613-11.312,2.927
			c-2.303-0.978-4.195-2.634-3.099-5.427c1.005-2.56,4.922-4.598,5.511-6.032c0.133-0.324,0.039-0.632-0.393-0.808
			c-2.102-0.854-9.705,3.936-13.986,11.393C565.507,308.089,564.981,309.028,563.937,310.911z"/>
		<path d="M601.704,303.51c-3.331-1.852-12.066,4.335-14.819,9.892c-1.487,3.002-1.31,5.349,1.518,6.844
			c4.215,2.229,10.566,0.252,13.499-1.269c0.555-0.288,0.991-0.271,1.263-0.103c0.218,0.135,0.301,0.366,0.115,0.663
			c-0.105,0.169-0.296,0.364-0.559,0.535c-3.903,2.529-11.273,4.933-17.333,1.817c-5.269-2.71-5.703-7.308-3.6-11.955
			c3.073-6.788,12.247-12.847,18.715-9.36c1.329,0.717,2.281,2.049,2.784,2.623c1.624,1.854,2.147,4.711,0.77,7.034
			c-1.838,3.096-4.514,5.078-7.531,3.392c-1.284-0.718-2.214-1.955-1.788-2.748c0.946-1.763,5.383-1.254,7.429-4.865
			C602.684,305.094,602.299,303.84,601.704,303.51z"/>
		<path d="M623.635,322.108c-2.938,3.795-10.694,6.24-16.27,2.472c-0.631-0.426-1.735-1.597-1.842-1.588
			c-0.469,0.041-3.062,5.115,0.075,7.283c4.808,3.321,10.612,1.057,13.162,0.463c0.609-0.142,0.997-0.106,1.252,0.097
			c0.204,0.163,0.23,0.441,0.043,0.676c-0.125,0.156-0.332,0.311-0.589,0.425c-5.761,2.558-11.742,3.42-17.498-0.44
			c-4.304-2.886-4.094-7.246-1.625-11.304c3.872-6.366,13.986-11.562,19.976-7.321c1.256,0.889,2.291,2.412,2.731,3.025
			C624.381,317.75,625.135,320.171,623.635,322.108z M606.771,322.258c3.146,2.081,12.272-1.055,14.59-4.192
			c0.476-0.644,0.868-1.413,0.027-2.026c-3.193-2.33-15.041,4.113-15.018,5.894C606.371,322.001,606.61,322.152,606.771,322.258z"/>
	</g>
</g>
<g>
	<g>
		<path d="M378.751,613.832c2.395-2.579,3.593-3.868,5.988-6.447c-2.081-1.938-3.107-2.933-5.127-4.97
			c-2.498,2.479-3.746,3.721-6.244,6.2c-1.441-1.453-2.155-2.192-3.564-3.693c5.509-5.173,8.264-7.761,13.773-12.934
			c1.266,1.348,1.905,2.012,3.198,3.316c-1.854,1.841-2.78,2.759-4.635,4.6c1.979,1.996,2.982,2.971,5.021,4.869
			c1.778-1.915,2.668-2.872,4.447-4.787c1.333,1.24,2.004,1.85,3.362,3.046c-4.99,5.677-7.484,8.518-12.474,14.194
			C380.985,615.894,380.236,615.214,378.751,613.832z"/>
		<path d="M406.972,630.127c-2.351-1.514-3.516-2.296-5.819-3.91c-1.564,1.093-2.353,1.634-3.941,2.702
			c-1.7-1.215-2.544-1.838-4.217-3.106c7.046-4.143,10.458-6.34,17.047-10.969c1.608,1.116,2.421,1.659,4.055,2.723
			c-1.795,7.852-2.55,11.84-3.76,19.91c-1.776-1.053-2.657-1.591-4.409-2.697C406.33,632.913,406.54,631.981,406.972,630.127z
			 M403.776,624.359c1.558,1.078,2.343,1.606,3.923,2.638c0.211-0.829,0.317-1.242,0.534-2.068c0.509-1.896,1.571-5.313,1.571-5.313
			c-0.024-0.016-2.718,2.336-4.29,3.484C404.822,623.606,404.474,623.857,403.776,624.359z"/>
		<path d="M421.917,643.785c3.375-6.765,5.063-10.147,8.438-16.912c2.758,1.376,4.15,2.033,6.957,3.273
			c3.797,1.678,5.382,4.85,3.985,8.392c-0.892,2.261-2.614,3.531-4.817,3.731c0.286,3.332,0.462,5.005,0.878,8.353
			c-1.941-0.755-2.908-1.146-4.832-1.958c-0.196-2.907-0.272-4.357-0.376-7.25c-1.277-0.565-1.913-0.855-3.181-1.447
			c-1.101,2.357-1.653,3.537-2.754,5.895C424.488,645.055,423.628,644.639,421.917,643.785z M437.349,636.927
			c0.674-1.593-0.109-2.968-2.073-3.845c-1.021-0.456-1.53-0.69-2.545-1.164c-0.91,1.947-1.365,2.92-2.274,4.867
			c1.047,0.489,1.573,0.729,2.626,1.199C435.08,638.876,436.676,638.518,437.349,636.927z"/>
		<path d="M450.26,655.089c2.215-7.228,3.322-10.841,5.538-18.068c2.509,0.766,3.77,1.123,6.302,1.788
			c6.388,1.677,9.929,5.062,8.686,11.422c-1.187,6.067-6.35,8.693-12.607,7.085C454.995,656.497,453.411,656.051,450.26,655.089z
			 M466.374,649.286c0.909-4.084-1.01-5.938-5.184-7.033c-0.894-0.234-1.339-0.355-2.229-0.603
			c-1.266,4.547-1.897,6.822-3.163,11.369c1.254,0.348,1.882,0.516,3.141,0.84C462.935,654.89,465.542,653.027,466.374,649.286z"/>
		<path d="M512.771,663.229c-6.591,0.298-11.658-4.188-11.562-9.558c0.096-5.315,4.84-9.565,10.68-9.829
			c3.304-0.149,5.969,0.854,8.209,2.785c-1.18,1.107-1.783,1.656-3.002,2.743c-1.434-1.14-3.111-1.92-5.07-1.832
			c-3.588,0.161-6.343,2.783-6.316,6.156c0.026,3.428,3.019,6.015,6.861,5.842c2.131-0.096,3.856-1.131,5.19-2.557
			c1.473,0.843,2.218,1.26,3.726,2.072C519.53,661.406,516.724,663.051,512.771,663.229z"/>
		<path d="M531.779,651.557c-0.832-5.251,3.194-10.274,8.953-11.565c5.7-1.277,11.558,1.527,13.059,6.629
			c1.516,5.153-2.423,10.88-8.791,12.307C538.566,660.368,532.62,656.862,531.779,651.557z M549.304,647.873
			c-0.914-3.444-4.196-5.156-7.774-4.354c-3.608,0.809-5.824,3.779-5.179,7.255c0.656,3.529,3.986,5.493,7.854,4.626
			C548.041,654.54,550.218,651.317,549.304,647.873z"/>
		<path d="M569.715,651.252c-2.674-7.07-4.012-10.604-6.689-17.675c2.465-0.931,3.69-1.424,6.124-2.456
			c6.14-2.604,11.093-2.138,14.012,3.648c2.785,5.521,0.233,10.803-5.765,13.382C574.346,649.464,572.811,650.083,569.715,651.252z
			 M579.027,636.76c-1.786-3.785-4.477-4.058-8.487-2.357c-0.859,0.364-1.289,0.544-2.152,0.896
			c1.786,4.37,2.679,6.556,4.463,10.925c1.214-0.495,1.818-0.75,3.025-1.269C579.709,643.309,580.664,640.227,579.027,636.76z"/>
		<path d="M599.96,636.533c-3.913-6.469-5.871-9.701-9.786-16.17c4.446-2.695,6.629-4.138,10.896-7.213
			c0.801,1.113,1.197,1.67,1.998,2.783c-2.904,2.093-4.374,3.098-7.36,5.018c0.816,1.272,1.224,1.908,2.04,3.181
			c2.14-1.376,3.199-2.086,5.298-3.548c0.776,1.117,1.164,1.676,1.94,2.793c-2.14,1.491-3.221,2.217-5.402,3.619
			c1.05,1.637,1.576,2.451,2.626,4.088c3.199-2.057,4.776-3.13,7.887-5.371c0.8,1.113,1.202,1.672,2.002,2.785
			C607.345,631.924,604.913,633.53,599.96,636.533z"/>
		<path d="M624.086,619.08c-4.901-5.753-7.353-8.629-12.255-14.382c2.096-1.791,3.127-2.713,5.164-4.605
			c5.138-4.774,10.137-6.238,14.858-1.804c4.506,4.231,3.717,10.285-1.293,14.989C628.012,615.671,626.718,616.831,624.086,619.08z
			 M628.459,601.77c-2.969-2.947-5.683-2.185-9.04,0.935c-0.719,0.668-1.08,1-1.806,1.655c3.158,3.507,4.736,5.261,7.894,8.768
			c1.022-0.923,1.527-1.39,2.536-2.335C631.244,607.791,631.179,604.469,628.459,601.77z"/>
	</g>
</g>
<path d="M490.123,583.643c-3.27-5.766-1.044-14.81,5.72-21.576c5.46-5.458,19.603-8.213,23.726-4.09
	c0.007,0.007,0.014,0.015,0.021,0.021c-1.085,3.158-5.643,8.62-16.002,12.252C494.097,573.58,491.537,580.131,490.123,583.643z
	 M521.745,561.252c-0.822,1.917-2.902,3.122-5.368,5.587c-2.477,2.479-6,4.913-10.988,6.663
	c-10.124,3.551-11.871,10.327-12.659,13.145c0.037,0.037,0.498,0.356-0.977-0.853c5.423,5.423,16.046,3.592,23.727-4.091
	C522.314,574.868,525.163,567.007,521.745,561.252z"/>
<g>
	<path d="M431.655,564.75h7.815v1.351h-6.015v3.375h3.12v1.8h-3.12v3.375h6.015V576h-7.815V564.75z"/>
	<path d="M442.185,567.69c0-2.88,1.575-2.94,3.9-2.94c2.355,0,3.915,0.48,3.915,2.476v0.225h-1.8v-0.225
		c0-1.11-0.39-1.125-1.515-1.125h-0.6h-0.27c-1.335,0-1.83,0.045-1.83,1.35c0,1.59,0.06,1.695,1.41,1.695h0.69h0.06
		c2.295,0,3.855,0.09,3.855,3.27c0,3.495-1.56,3.585-3.915,3.585c-2.31,0-3.9-0.045-3.9-2.475V573.3h1.8v0.226
		c0,1.109,0.525,1.125,1.95,1.125h0.12h0.03h0.375c1.215,0,1.74-0.09,1.74-2.025c0-1.59-0.075-1.68-1.41-1.68h-0.6h-0.105
		C443.745,570.945,442.185,570.87,442.185,567.69z"/>
	<path d="M452.714,564.75h7.815v1.65h-2.895l0.12,9.6h-1.8l-0.33-9.6h-2.91V564.75z"/>
	<path d="M468.269,574.65c0,0.81-0.765,1.574-1.575,1.574c-0.81,0-1.56-0.765-1.56-1.574c0-0.811,0.75-1.575,1.56-1.575
		C467.504,573.075,468.269,573.84,468.269,574.65z"/>
	<path d="M542.562,570.285h-2.279l4.545-5.535h2.055V576h-1.801v-8.564L542.562,570.285z"/>
	<path d="M556.827,571.41c-0.555,0.3-1.335,0.54-2.114,0.54c-2.445,0-3.9-1.425-3.9-3.6s1.455-3.601,3.9-3.601
		c2.444,0,3.914,1.41,3.914,3.57V576h-1.8V571.41z M554.713,566.101c-1.381,0-2.101,0.689-2.101,2.01s0.72,2.04,2.101,2.04
		c1.379,0,2.114-0.72,2.114-2.04S556.092,566.101,554.713,566.101z"/>
	<path d="M567.357,571.41c-0.555,0.3-1.336,0.54-2.115,0.54c-2.445,0-3.9-1.425-3.9-3.6s1.455-3.601,3.9-3.601
		s3.915,1.41,3.915,3.57V576h-1.8V571.41z M565.242,566.101c-1.38,0-2.1,0.689-2.1,2.01s0.72,2.04,2.1,2.04s2.115-0.72,2.115-2.04
		S566.622,566.101,565.242,566.101z"/>
	<path d="M579.688,564.75V576h-1.801v-4.05h-6.015v-1.62l5.805-5.58H579.688z M577.887,570.15v-3.18l-3.345,3.18H577.887z"/>
</g>
<g>
	<path d="M419.085,375v-14.003h5.101c2.76,0,4.521,1.78,4.521,4.601c0,1.8-0.72,3.141-1.94,3.901l2.4,5.501h-3.121l-1.96-4.821
		h-2.161V375H419.085z M425.966,365.598c0-1.28-0.82-2-2.221-2h-1.82v3.981h1.82C425.126,367.579,425.966,366.878,425.966,365.598z"
		/>
	<path d="M448.285,375v-14.003h8.521v2.541h-5.681v2.801h3.981v2.521h-3.981v3.601h5.681V375H448.285z"/>
	<path d="M475.324,372.5l2.301-1.641c0.56,1.101,1.44,1.681,2.46,1.681c0.92,0,1.56-0.62,1.56-1.48c0-2.081-5.401-2.88-5.401-6.661
		c0-2.121,1.8-3.601,3.781-3.601c1.581,0,2.741,0.72,3.481,1.86l-1.92,1.701c-0.36-0.541-0.86-0.96-1.44-0.96
		s-1.021,0.42-1.021,1.021c0,1.76,5.381,2.66,5.381,6.601c0,2.4-1.84,4.161-4.441,4.161
		C478.085,375.18,476.265,374.36,475.324,372.5z"/>
	<path d="M504.285,375v-11.362h-2.682v-2.641h8.242v2.641h-2.68V375H504.285z"/>
	<path d="M528.364,375v-14.003h7.361v2.641h-4.521v2.701h3.08v2.64h-3.08V375H528.364z"/>
	<path d="M561.546,370.199v-9.202h2.881v9.022c0,3.641-2.32,5.181-4.861,5.181c-2.521,0-4.841-1.541-4.841-5.181v-9.022h2.881v9.202
		c0,1.48,0.84,2.36,1.96,2.36C560.706,372.56,561.546,371.679,561.546,370.199z"/>
	<path d="M584.024,375v-14.003h2.841v11.402h4.94V375H584.024z"/>
</g>
</svg>
