<?xml version="1.0" encoding="utf-8"?>
<!-- Generator: Adobe Illustrator 16.0.0, SVG Export Plug-In . SVG Version: 6.00 Build 0)  -->
<!DOCTYPE svg PUBLIC "-//W3C//DTD SVG 1.1//EN" "http://www.w3.org/Graphics/SVG/1.1/DTD/svg11.dtd">
<svg version="1.1" id="Layer_1" xmlns="http://www.w3.org/2000/svg" xmlns:xlink="http://www.w3.org/1999/xlink" x="0px" y="0px"
	 width="1000px" height="1000px" viewBox="0 0 1000 1000" enable-background="new 0 0 1000 1000" xml:space="preserve">
<g>
	<path fill="none" d="M504.017,251.141c96.798,0,178.659,63.924,205.689,151.859h8.53
		c-27.305-92.743-113.062-160.448-214.648-160.448c-101.584,0-187.341,67.706-214.646,160.448h9.387
		C325.358,315.065,407.219,251.141,504.017,251.141z"/>
	<path fill="none" d="M709.586,530c-27.154,87.729-108.918,151.458-205.569,151.458S325.602,617.729,298.448,530h-9.087h-0.297
		c27.437,92.532,113.09,160.038,214.524,160.038c101.436,0,187.09-67.506,214.526-160.038h-0.297H709.586z"/>
	<path d="M503.588,690.038c-101.434,0-187.087-67.506-214.524-160.038h-35.335c28.179,111.717,129.322,194.41,249.788,194.41
		c120.468,0,221.61-82.693,249.789-194.41h-35.191C690.678,622.532,605.023,690.038,503.588,690.038z"/>
	<path d="M503.588,241.552c101.951,0,187.966,68.191,214.946,161.448h34.626c-28.389-111.414-129.39-193.812-249.644-193.812
		c-120.252,0-221.254,82.398-249.642,193.812h34.77C315.625,309.743,401.639,241.552,503.588,241.552z"/>
	<path fill="#564308" d="M503.588,241.552c-101.949,0-187.963,68.191-214.944,161.448h0.297
		c27.305-92.743,113.062-160.448,214.646-160.448c101.586,0,187.344,67.706,214.648,160.448h0.298
		C691.554,309.743,605.539,241.552,503.588,241.552z"/>
	<path d="M504.017,251.141c-96.798,0-178.659,63.924-205.688,151.859h411.377C682.676,315.065,600.814,251.141,504.017,251.141z"/>
	<path d="M504.017,681.458c96.651,0,178.415-63.729,205.569-151.458H298.448C325.602,617.729,407.365,681.458,504.017,681.458z"/>
</g>
<polygon points="841,411 163,411 203,467 163,523 841,523 801,467 "/>
<text transform="matrix(1 0 0 1 249.8745 502)" fill="#FFFFFF" font-family="'Hermit-medium'" font-size="90" letter-spacing="9">CODIFICA</text>
<g>
	<g>
		<path fill="#FFFFFF" d="M414.793,303.396c4.574,8.355,6.396,22.939-1.388,29.328c-4.448,3.65-10.731,1.781-14.92-3.448
			c-2.157-2.693-1.407-9.646-1.662-10.429c-0.09-0.277-1.991-1.25-2.719-2.205c-3.185-4.173-2.276-12.277,4.552-16.789
			C407.07,294.294,412.208,298.676,414.793,303.396z M401.853,299.565c-4.086,1.473-4.909,10.504-2.062,14.494
			c1.365,1.913,3.371,3.042,5.826,2.755c0.523-0.062,0.833,0.036,0.974,0.242c0.113,0.166,0.032,0.399-0.405,0.701
			c-1.585,1.092-3.953,1.563-5.344,1.714c0.079,0.29,0.119,0.433,0.198,0.723c0.833,3.173,2.118,6.167,3.752,8.239
			c2.237,2.837,5.973,4.85,7.252,3.852c4.833-3.771-0.427-21.539-4.691-28.801C406.291,301.676,404.065,298.768,401.853,299.565z"/>
		<path fill="#FFFFFF" d="M429.171,321.752c-0.739,0.869,3.107,11.103,3.859,12.748c0.501,1.096-0.156,1.82-1.006,2.323
			c-0.992,0.587-2.491,0.695-3.147-0.614c-4.758-9.495-7.797-22.388-9.525-33.709c-0.199-1.304,0.756-2.46,1.901-3.062
			c1.326-0.696,2.916-0.712,3.457,0.359c0.09,0.179,0.425,2.025,0.425,2.025c0.026-0.001,1.554-6.759,4.217-7.987
			c3.778-1.742,6.509,0.344,7.915,3.658c2.305,5.432-1.062,19.766-1.062,19.766c0.094,0.083,6.368-7.188,7.196-12.834
			c0.091-0.617,0.337-1,0.628-1.116c0.233-0.093,0.482,0.023,0.611,0.349c0.092,0.232,0.12,0.454,0.104,0.767
			c-0.356,6.787-2.726,11.914-10.429,15.844C431.888,321.509,429.23,321.684,429.171,321.752z M428.563,319.008
			c0.587-0.32,1.935,0.033,2.57-0.072c2.246-0.37,2.52-14.087,0.262-18.938c-0.76-1.632-1.688-2.36-2.777-1.841
			c-2.359,1.126-2.826,6.855-1.679,13.491C427.556,314.604,427.881,316.076,428.563,319.008z"/>
		<path fill="#FFFFFF" d="M458.213,288.966c1.325,4.614-1.079,12.257-7.233,14.449c-0.696,0.248-2.251,0.433-2.305,0.52
			c-0.245,0.397,2.303,5.503,5.794,4.298c5.35-1.845,6.806-7.829,7.76-10.216c0.228-0.571,0.471-0.857,0.771-0.938
			c0.24-0.065,0.474,0.079,0.552,0.369c0.052,0.193,0.058,0.453,0.003,0.726c-1.211,6.128-3.854,11.402-10.189,13.683
			c-4.738,1.706-8.102-1.062-9.902-5.459c-2.823-6.896-1.085-18.083,5.643-20.319c1.41-0.468,3.187-0.379,3.914-0.364
			C455.196,285.762,457.537,286.611,458.213,288.966z M448.805,302.5c3.446-1.267,6.127-10.414,4.97-14.139
			c-0.238-0.764-0.618-1.54-1.573-1.237c-3.628,1.15-5.35,14.443-3.88,15.501C448.376,302.665,448.629,302.564,448.805,302.5z"/>
		<path fill="#FFFFFF" d="M465.524,308.106c-1.179,0.325-2.675-0.021-3.097-1.462c-0.042-0.144-0.04-0.312-0.07-0.449
			c-1.492-6.882-1.055-12.821-0.13-21.277c0.104-0.945,1.033-1.608,2.069-1.862c1.556-0.38,3.37,0.081,3.69,1.496
			c0.288,1.268-0.41,4.866-0.41,4.866c0.033,0.005,4.116-9.477,7.545-10.103c3.891-0.709,5.306,1.842,5.592,3.67
			c0.872,5.583-3.568,15.131-2.996,18.127c0.122,0.638,0.487,0.974,1.125,0.856c2.554-0.472,5.625-7.616,6.218-8.708
			c0.296-0.547,0.74-0.959,1.046-1c0.184-0.024,0.319,0.058,0.352,0.306c0.026,0.198-0.006,0.512-0.124,0.926
			c-0.522,1.829-3.531,10.756-8.484,11.72c-2.277,0.443-4.734-0.441-5.389-3.369c-0.982-4.392,3.089-14.469,2.468-17.761
			c-0.121-0.639-0.547-1.12-1.259-0.982c-2.392,0.464-6.365,9.296-6.404,18.645c-0.036,0.153-0.055,0.23-0.09,0.384
			c0.056,1.431,0.161,2.677,0.236,3.76C467.491,306.983,466.591,307.813,465.524,308.106z"/>
		<path fill="#FFFFFF" d="M516.5,293.937c-0.097,2.448-2.324,4.372-3.148,5.157c-0.903,0.861-4.345,3.057-8.502,3.176
			c-3.003,0.086-5.818-0.583-10.859-3.954c-0.443-0.297-0.716-0.635-0.759-1.083c-0.105-1.095,1.473-2.405,3.466-2.553
			c4.108-0.305,4.949,4.524,11.713,4.476c3.646-0.026,4.615-1.418,4.639-2.568c0.081-4.049-11.988-7.032-12.374-15.073
			c-0.297-6.193,7.501-15.408,13.825-15.255c1.969,0.047,4.15,1.4,4.355,1.653c0.942,1.162,3.436,3.144,3.339,4.641
			c-0.07,1.098-0.637,2.92-2.413,9.124c-0.479,1.675-1.545,2.416-3.403,2.348c-1.666-0.061-3.13-0.689-3.095-2.488
			c0.063-3.2,4.959-7.645,5.102-10.842c0.033-0.749-0.298-1.9-0.742-2.135c-2.601-1.376-10.739,7.309-10.68,11.559
			C507.044,285.868,516.739,287.891,516.5,293.937z"/>
		<path fill="#FFFFFF" d="M534.715,297.987c-2.09,0.742-6.142,5.114-9.426,4.804c-4.608-0.436-6.312-4.233-6.059-8.826
			c0.204-3.694,1.642-7.239,3.441-9.854c0.579-0.841,2.854-1.387,3.373-1.637c1.18-0.568,4.485-5.181,8.666-4.631
			c5.309,0.699,6.902,4.486,6.172,8.724c-0.586,3.4-4.998,10.128-4.998,10.128c0.1,0.253,4.559-0.262,6.431-2.097
			c0.433-0.424,0.829-0.71,1.255-0.627c0.183,0.036,0.346,0.17,0.297,0.415c-0.039,0.196-0.166,0.479-0.416,0.835
			C542.304,296.854,536.704,297.281,534.715,297.987z M530.794,296.953c-0.245-0.761-5.442-5.957-5.442-5.957
			c-0.089-0.002-0.954,3.179-1.077,4.624c-0.225,2.64,0.366,4.689,2.294,4.884c0.176,0.018,0.359,0.021,0.529,0.004
			C528.139,300.403,530.919,297.342,530.794,296.953z M528.574,287.591c-0.309,2.934,2.569,7.866,3.156,7.716
			c0.955-0.244,3.418-7.664,3.874-10.882c0.364-2.574,0.04-4.545-1.537-4.749C531.834,279.387,529.028,283.265,528.574,287.591z"/>
		<path fill="#FFFFFF" d="M545.457,300.278c-0.282,1.32-0.033,2.138,0.835,2.33c3.358,0.743,7.847-8.098,13.419-17.279
			c0.887-1.46,2.645-1.759,4.196-1.302c1.423,0.419,2.554,1.557,2.167,2.798c-0.596,1.91-9.68,13.826-10.608,17.15
			c-0.242,0.867-0.137,1.363,0.376,1.509c2.056,0.584,7.472-4.428,8.462-5.262c0.541-0.455,0.976-0.577,1.271-0.478
			c0.237,0.079,0.365,0.281,0.254,0.613c-0.063,0.189-0.224,0.455-0.503,0.728c-1.376,1.345-7.535,7.969-12.258,6.689
			c-1.687-0.457-2.828-5.067-2.828-5.067c-0.115-0.063-4.399,3.266-6.73,2.781c-3.184-0.663-3.887-2.946-3.315-6.095
			c0.865-4.772,4.793-11.431,7.263-17.036c0.637-1.446,2.487-1.786,3.993-1.45c1.441,0.322,2.661,1.283,2.382,2.45
			c-0.035,0.146-0.101,0.343-0.183,0.47C549.533,290.213,546.136,297.099,545.457,300.278z"/>
		<path fill="#FFFFFF" d="M563.937,309.536c-0.524,0.983-1.642,1.185-2.586,0.875c-1.055-0.346-1.902-1.346-1.453-2.777
			c1.047-3.34,5.951-12.154,11.296-18.447c0.591-0.695,1.737-0.722,2.812-0.336c1.454,0.522,2.808,1.889,2.312,3.198
			c-0.302,0.795-2.104,2.414-2.104,2.414c0.016,0.016,7.387-4.297,10.454-2.993c2.315,0.984,2.73,2.392,1.854,4.355
			c-1.143,2.557-5.866,5.569-6.553,7.179c-0.274,0.644,0.035,1.209,0.905,1.589c1.914,0.835,5.865-1.375,7.651-2.668
			c0.673-0.487,1.288-0.714,1.644-0.542c0.654,0.316-0.051,1.145-0.314,1.402c-2.128,2.075-7.342,4.614-11.312,2.928
			c-2.303-0.978-4.195-2.633-3.099-5.426c1.005-2.56,4.922-4.599,5.511-6.033c0.133-0.324,0.039-0.631-0.393-0.807
			c-2.102-0.854-9.705,3.936-13.986,11.393C565.507,306.714,564.981,307.652,563.937,309.536z"/>
		<path fill="#FFFFFF" d="M601.704,302.135c-3.331-1.852-12.066,4.333-14.819,9.89c-1.487,3.002-1.31,5.351,1.518,6.846
			c4.215,2.229,10.566,0.25,13.499-1.271c0.555-0.288,0.991-0.271,1.263-0.102c0.218,0.135,0.301,0.364,0.115,0.661
			c-0.105,0.169-0.296,0.366-0.559,0.536c-3.903,2.529-11.273,4.935-17.333,1.818c-5.269-2.71-5.703-7.309-3.6-11.956
			c3.073-6.788,12.247-12.847,18.715-9.36c1.329,0.717,2.281,2.048,2.784,2.622c1.624,1.854,2.147,4.712,0.77,7.034
			c-1.838,3.096-4.514,5.078-7.531,3.392c-1.284-0.718-2.214-1.955-1.788-2.748c0.946-1.763,5.383-1.254,7.429-4.865
			C602.684,303.718,602.299,302.465,601.704,302.135z"/>
		<path fill="#FFFFFF" d="M623.635,320.733c-2.938,3.795-10.694,6.239-16.27,2.471c-0.631-0.426-1.735-1.597-1.842-1.588
			c-0.469,0.041-3.062,5.116,0.075,7.284c4.808,3.321,10.612,1.055,13.162,0.461c0.609-0.142,0.997-0.106,1.252,0.098
			c0.204,0.163,0.23,0.442,0.043,0.676c-0.125,0.156-0.332,0.311-0.589,0.425c-5.761,2.558-11.742,3.42-17.498-0.44
			c-4.304-2.886-4.094-7.247-1.625-11.305c3.872-6.366,13.986-11.562,19.976-7.32c1.256,0.889,2.291,2.411,2.731,3.024
			C624.381,316.374,625.135,318.796,623.635,320.733z M606.771,320.882c3.146,2.081,12.272-1.054,14.59-4.192
			c0.476-0.644,0.868-1.413,0.027-2.026c-3.193-2.33-15.041,4.112-15.018,5.893C606.371,320.625,606.61,320.776,606.771,320.882z"/>
	</g>
</g>
<g>
	<g>
		<path fill="#FFFFFF" d="M378.75,613.832c2.395-2.579,3.594-3.869,5.989-6.448c-2.081-1.938-3.106-2.933-5.126-4.97
			c-2.498,2.479-3.747,3.722-6.245,6.201c-1.441-1.453-2.155-2.192-3.564-3.693c5.509-5.173,8.264-7.761,13.773-12.934
			c1.266,1.348,1.906,2.012,3.199,3.316c-1.854,1.841-2.781,2.76-4.635,4.601c1.979,1.996,2.983,2.972,5.022,4.869
			c1.778-1.914,2.667-2.872,4.445-4.786c1.333,1.24,2.004,1.849,3.362,3.045c-4.989,5.677-7.484,8.517-12.474,14.193
			C380.985,615.894,380.235,615.214,378.75,613.832z"/>
		<path fill="#FFFFFF" d="M406.97,630.129c-2.351-1.514-3.514-2.298-5.817-3.912c-1.564,1.093-2.353,1.634-3.941,2.702
			c-1.7-1.215-2.544-1.836-4.217-3.104c7.046-4.142,10.459-6.342,17.047-10.971c1.608,1.116,2.419,1.661,4.053,2.725
			c-1.795,7.851-2.549,11.838-3.759,19.908c-1.776-1.053-2.657-1.591-4.409-2.697C406.33,632.913,406.538,631.983,406.97,630.129z
			 M403.776,624.359c1.558,1.078,2.344,1.608,3.924,2.64c0.211-0.829,0.317-1.247,0.535-2.074c0.508-1.896,1.57-5.31,1.57-5.31
			c-0.024-0.016-2.718,2.336-4.29,3.484C404.822,623.606,404.474,623.857,403.776,624.359z"/>
		<path fill="#FFFFFF" d="M421.917,643.785c3.375-6.765,5.063-10.146,8.439-16.91c2.758,1.376,4.15,2.03,6.956,3.271
			c3.797,1.678,5.381,4.851,3.985,8.392c-0.891,2.261-2.614,3.532-4.817,3.731c0.286,3.332,0.462,5.006,0.878,8.354
			c-1.941-0.755-2.908-1.146-4.832-1.958c-0.196-2.907-0.272-4.359-0.376-7.252c-1.277-0.565-1.913-0.854-3.181-1.445
			c-1.102,2.358-1.652,3.536-2.753,5.895C424.488,645.055,423.628,644.639,421.917,643.785z M437.349,636.926
			c0.673-1.592-0.109-2.969-2.073-3.846c-1.021-0.456-1.531-0.688-2.546-1.162c-0.91,1.947-1.364,2.92-2.273,4.867
			c1.047,0.489,1.573,0.729,2.627,1.2C435.08,638.877,436.675,638.518,437.349,636.926z"/>
		<path fill="#FFFFFF" d="M450.259,655.089c2.215-7.228,3.323-10.842,5.539-18.069c2.509,0.766,3.77,1.125,6.302,1.79
			c6.388,1.677,9.93,5.06,8.687,11.419c-1.187,6.067-6.351,8.695-12.608,7.087C454.995,656.497,453.41,656.051,450.259,655.089z
			 M466.375,649.286c0.909-4.084-1.009-5.936-5.183-7.031c-0.894-0.234-1.341-0.357-2.231-0.604
			c-1.266,4.547-1.897,6.822-3.163,11.369c1.254,0.348,1.882,0.518,3.141,0.842C462.935,654.892,465.542,653.028,466.375,649.286z"
			/>
		<path fill="#FFFFFF" d="M512.771,663.229c-6.591,0.298-11.658-4.184-11.562-9.554c0.096-5.316,4.84-9.569,10.68-9.833
			c3.304-0.149,5.969,0.854,8.209,2.786c-1.18,1.107-1.782,1.656-3.001,2.742c-1.434-1.139-3.112-1.921-5.071-1.833
			c-3.588,0.161-6.345,2.787-6.318,6.161c0.026,3.428,3.021,6.011,6.863,5.838c2.131-0.096,3.856-1.129,5.19-2.556
			c1.473,0.843,2.22,1.26,3.728,2.072C519.532,661.406,516.724,663.051,512.771,663.229z"/>
		<path fill="#FFFFFF" d="M531.779,651.561c-0.833-5.252,3.194-10.278,8.953-11.569c5.7-1.277,11.558,1.531,13.059,6.633
			c1.516,5.153-2.423,10.876-8.791,12.303C538.566,660.368,532.62,656.865,531.779,651.561z M549.304,647.877
			c-0.915-3.444-4.196-5.16-7.774-4.358c-3.608,0.809-5.825,3.782-5.179,7.259c0.656,3.529,3.985,5.488,7.854,4.621
			C548.04,654.539,550.218,651.32,549.304,647.877z"/>
		<path fill="#FFFFFF" d="M569.715,651.252c-2.674-7.07-4.013-10.604-6.689-17.674c2.465-0.931,3.69-1.423,6.124-2.455
			c6.14-2.604,11.093-2.139,14.012,3.646c2.785,5.521,0.233,10.803-5.765,13.382C574.346,649.464,572.811,650.083,569.715,651.252z
			 M579.028,636.758c-1.786-3.784-4.477-4.055-8.487-2.354c-0.859,0.364-1.291,0.543-2.154,0.895
			c1.786,4.369,2.679,6.555,4.463,10.924c1.215-0.495,1.819-0.749,3.026-1.267C579.709,643.31,580.665,640.226,579.028,636.758z"/>
		<path fill="#FFFFFF" d="M599.96,636.533c-3.913-6.468-5.872-9.7-9.786-16.168c4.446-2.695,6.63-4.14,10.897-7.215
			c0.8,1.113,1.196,1.671,1.997,2.784c-2.904,2.093-4.374,3.098-7.36,5.018c0.816,1.272,1.224,1.909,2.04,3.182
			c2.14-1.376,3.2-2.086,5.299-3.548c0.776,1.117,1.163,1.674,1.939,2.791c-2.14,1.491-3.22,2.217-5.401,3.619
			c1.05,1.637,1.575,2.451,2.625,4.088c3.199-2.057,4.776-3.13,7.887-5.371c0.8,1.113,1.202,1.672,2.002,2.785
			C607.345,631.924,604.913,633.53,599.96,636.533z"/>
		<path fill="#FFFFFF" d="M624.086,619.08c-4.9-5.753-7.353-8.627-12.254-14.38c2.096-1.791,3.128-2.714,5.165-4.606
			c5.138-4.774,10.135-6.239,14.856-1.805c4.506,4.231,3.717,10.285-1.293,14.989C628.012,615.671,626.718,616.831,624.086,619.08z
			 M628.459,601.77c-2.969-2.947-5.684-2.186-9.041,0.934c-0.719,0.668-1.08,1-1.806,1.655c3.157,3.507,4.737,5.261,7.894,8.767
			c1.021-0.923,1.529-1.39,2.538-2.335C631.245,607.788,631.179,604.47,628.459,601.77z"/>
	</g>
</g>
<path fill="#FFFFFF" d="M490.123,583.643c-3.27-5.766-1.044-14.81,5.72-21.576c5.46-5.458,19.603-8.213,23.726-4.09
	c0.007,0.007,0.014,0.015,0.021,0.021c-1.085,3.158-5.643,8.62-16.002,12.252C494.097,573.58,491.537,580.131,490.123,583.643z
	 M521.745,561.252c-0.822,1.917-2.902,3.122-5.368,5.587c-2.477,2.479-6,4.913-10.988,6.663
	c-10.124,3.551-11.871,10.327-12.659,13.145c0.037,0.037,0.498,0.356-0.977-0.853c5.423,5.423,16.046,3.592,23.727-4.091
	C522.314,574.868,525.163,567.007,521.745,561.252z"/>
<text transform="matrix(1 0 0 1 430.4849 576)" fill="#FFFFFF" font-family="'Hermit-bold'" font-size="15">EST.       1994</text>
<text transform="matrix(1 0 0 1 417.4844 375)" fill="#FFFFFF" font-family="'Edmondsans-Bold'" font-size="20" letter-spacing="16">RESTFUL</text>
</svg>
